<svg width="476" height="363" viewBox="0 0 476 363" fill="none" xmlns="http://www.w3.org/2000/svg">
<path d="M353.801 228.16C354.307 229.577 354.841 231.075 355.409 232.663L355.443 232.757C357.676 239.008 360.166 245.984 361.869 250.815C358.05 256.875 351.339 267.515 343.783 279.488L353.801 228.16ZM474.937 204.712C474.549 201.14 472.7 197.827 469.865 195.621L441.312 173.409C438.981 171.597 436.073 170.599 433.121 170.599C432.465 170.599 431.804 170.648 431.159 170.744C427.569 171.277 424.312 173.284 422.22 176.249L404.56 201.284L394.509 183.007C392.164 178.743 387.683 176.093 382.815 176.093C380.939 176.093 379.114 176.483 377.393 177.249L362.438 183.908L365.917 166.085L399.327 158.525C405.435 157.143 409.711 151.803 409.721 145.54L409.772 118.717C409.78 114.988 408.209 111.4 405.464 108.875C402.995 106.603 399.788 105.352 396.432 105.352C396.053 105.352 395.672 105.368 395.297 105.4L387.436 106.072C389.487 99.1147 389.392 91.224 387.133 82.4906C384.309 70.792 377.784 62.088 367.736 56.6213C359.881 52.348 349.997 50.204 337.521 50.068C336.608 50.0267 335.687 50.0066 334.783 50.0066C323.212 50.0066 312.091 53.3387 303.469 59.3893C293.467 66.408 287.191 76.4973 285.321 88.5573C285.307 88.6507 285.293 88.744 285.277 88.86C285.277 88.86 285.249 89.088 285.239 89.176C284.264 97.96 286.867 106.568 292.769 114.156L281.252 115.14L280.964 110.996C280.491 104.2 275.001 98.868 268.192 98.5933C268.148 98.5906 266.388 98.52 263.367 98.3973C270.823 89.6773 275.612 78.72 276.656 67.772C276.657 67.764 276.659 67.7533 276.659 67.7507C277.785 57.6293 277.739 48.5227 276.519 40.6867C274.92 30.4173 271.264 21.8693 265.653 15.2773C257.704 5.93865 246.337 0.831996 231.867 0.10133C230.725 0.0346632 229.581 1.14604e-05 228.467 1.14604e-05C220.056 1.14604e-05 212.464 1.93999 205.899 5.76665C199.328 9.59732 193.917 15.2387 189.816 22.5373C184.384 32.2053 181.177 44.808 180.016 61.064C180.005 61.2227 179.996 61.3827 179.991 61.544C179.819 66.384 180.283 71.2226 181.367 75.9266C181.387 76.0093 181.405 76.0907 181.424 76.164C183.185 83.2027 186.129 89.7267 190.073 95.432C178.272 94.9547 169.86 94.6147 169.576 94.6027C165.728 94.4387 161.968 95.9827 159.335 98.7707C156.685 101.575 155.38 105.387 155.755 109.227L158.777 140.229C159.036 142.879 160.068 145.365 161.763 147.423C163.94 150.067 167.012 151.755 170.411 152.179L200.473 155.921L206.507 189.955C203.56 188.425 200.316 187.287 196.807 186.565C193.683 185.924 190.508 185.611 187.103 185.611C185.04 185.611 182.876 185.727 180.481 185.963C180.404 185.971 180.328 185.979 180.237 185.989C158.884 188.508 144.54 195.563 136.437 207.54L133.171 191.349L119.849 125.347C118.563 118.996 113.177 114.559 106.755 114.559C105.471 114.559 105.471 114.559 99.0225 115.812L70.9972 121.253C69.5492 121.535 68.1652 122.051 66.8839 122.788C62.3372 125.403 59.7372 130.467 60.2612 135.687L65.5065 187.847L40.7359 152.805C38.2385 149.273 34.1679 147.165 29.8439 147.165C29.2919 147.165 28.7345 147.2 28.1839 147.269L11.6825 149.337C4.74922 150.205 -0.372121 156.349 0.0212119 163.325L7.52788 296.341C7.73855 300.06 9.51052 303.547 12.3919 305.908C14.7705 307.856 17.7732 308.929 20.8479 308.929C21.4745 308.929 22.1065 308.885 22.7265 308.796L66.6479 302.545C73.6239 301.553 78.6385 295.273 78.0639 288.251L76.7599 272.312L82.9545 277.201C85.2985 279.052 88.2332 280.071 91.2199 280.071C91.9119 280.071 92.6119 280.015 93.2959 279.908L135.507 273.257C137.017 273.019 138.467 272.516 139.793 271.796C141.299 275.007 143.096 278.037 145.443 280.812C151.877 288.419 160.903 292.295 173.035 292.661C176.14 292.756 181.535 292.804 189.068 292.804C195.395 292.804 200.951 292.769 200.972 292.769C207.615 292.728 213.132 287.927 214.089 281.353L216.987 261.487C217.232 259.801 217.155 258.112 216.773 256.495C217.24 256.144 217.683 255.76 218.1 255.352L220.517 268.989C221.087 272.28 222.853 275.219 225.493 277.265C227.82 279.067 230.721 280.059 233.664 280.059C234.301 280.059 234.944 280.013 235.557 279.924C236.556 279.783 263.636 275.965 263.636 275.965C267.219 275.46 270.487 273.485 272.601 270.548C274.541 267.852 275.404 264.549 275.029 261.261C274.867 259.793 267.515 193.375 264.083 162.375C266.383 162.497 267.784 162.572 268.657 162.617C271.077 166.016 275.039 168.201 279.483 168.216L296.379 168.272L293.524 273.753C293.339 280.551 298.279 286.387 305.015 287.327L328.748 290.64C329.363 290.727 329.987 290.769 330.603 290.769C333.376 290.769 335.985 289.907 338.149 288.417C329.201 302.595 319.805 317.48 313.005 328.253C309.339 334.061 310.651 341.636 316.056 345.873L334.204 360.1C336.541 361.932 339.464 362.94 342.435 362.94C343.736 362.94 345.028 362.751 346.275 362.376C348 361.857 350.504 360.712 352.645 358.201C352.697 358.14 352.749 358.079 352.797 358.02C355.361 354.899 443.635 248.717 470.628 216.248L471.932 214.679C474.229 211.916 475.324 208.284 474.937 204.712Z" fill="#754D2E"/>
<path d="M181.147 223.51C180.904 223.784 180.559 223.947 180.192 223.962L174.164 224.204C174.145 224.206 174.128 224.206 174.109 224.206C173.464 224.206 172.905 223.746 172.785 223.107C172.663 222.448 173.04 221.8 173.673 221.583C173.973 221.48 174.286 221.384 174.616 221.295L174.715 221.267C175.933 220.918 177.737 220.451 179.267 220.451C179.637 220.451 179.961 220.476 180.261 220.528C180.791 220.622 181.215 221.022 181.339 221.546C181.405 221.822 181.453 222.146 181.481 222.508C181.51 222.874 181.389 223.235 181.147 223.51ZM463.883 199.655L435.328 177.444C433.719 176.192 431.604 175.636 429.585 175.936C427.555 176.238 425.712 177.374 424.529 179.05L402.768 209.899C402.5 210.278 402.06 210.491 401.591 210.467C401.128 210.442 400.709 210.178 400.485 209.771L387.005 185.26C385.679 182.848 383.142 181.35 380.388 181.35C379.329 181.35 378.298 181.57 377.324 182.003L354.559 192.14C354.099 192.344 353.564 192.276 353.172 191.963C352.777 191.65 352.592 191.144 352.688 190.651L358.36 161.591C358.462 161.067 358.864 160.652 359.385 160.535L395.622 152.335C399.077 151.554 401.494 148.532 401.502 144.99L401.552 118.167C401.556 116.058 400.668 114.028 399.115 112.599C397.561 111.17 395.481 110.455 393.364 110.634L378.148 111.934C377.652 111.975 377.165 111.738 376.896 111.314C376.627 110.89 376.615 110.351 376.867 109.916C381.039 102.704 381.785 93.7723 379.088 83.3683C376.664 73.2883 371.099 65.8283 362.541 61.171C355.523 57.3537 346.501 55.4403 334.959 55.3217C334.063 55.2817 333.203 55.2617 332.356 55.2617C309.316 55.2617 291.741 68.7843 288.62 88.9123C288.608 88.9897 288.579 89.219 288.573 89.271C287.729 96.871 290.177 104.376 295.652 110.979C297.191 112.834 298.955 114.598 300.893 116.219C301.312 116.57 301.479 117.139 301.315 117.659C301.151 118.179 300.688 118.55 300.144 118.596L274.819 120.759C274.457 120.79 274.101 120.675 273.828 120.44C273.553 120.206 273.385 119.87 273.36 119.51L272.757 110.859C272.491 107.015 269.384 103.999 265.533 103.843L250.284 103.226C249.72 103.203 249.229 102.831 249.056 102.294C248.883 101.756 249.062 101.168 249.506 100.82C260.15 92.4617 267.238 79.6817 268.466 66.635C270.908 44.715 267.749 28.9897 258.816 18.495C251.94 10.4163 241.953 5.99365 229.133 5.34832C228.086 5.28698 227.049 5.25502 226.04 5.25502C211.261 5.25502 199.643 12.027 192.443 24.8377C187.437 33.7457 184.469 45.555 183.369 60.939C183.364 61.0243 183.359 61.115 183.356 61.207C183.201 65.5417 183.616 69.8723 184.586 74.0817L184.621 74.2283C187.009 83.7657 191.812 92.259 198.511 98.779C198.911 99.1683 199.028 99.7643 198.808 100.278C198.588 100.791 198.068 101.114 197.516 101.091L166.91 99.8523C166.81 99.8497 166.708 99.847 166.605 99.847C164.539 99.847 162.54 100.708 161.121 102.211C159.621 103.798 158.884 105.954 159.096 108.124L162.119 139.128C162.26 140.571 162.811 141.938 163.713 143.079C164.949 144.644 166.721 145.643 168.701 145.89L202.02 150.038C202.607 150.111 203.077 150.558 203.181 151.14L211.815 199.842C211.92 200.44 211.612 201.036 211.063 201.296C210.513 201.555 209.856 201.414 209.461 200.951C205.411 196.198 199.944 193.086 193.215 191.703C190.48 191.14 187.688 190.867 184.677 190.867C182.807 190.867 180.829 190.972 178.63 191.19L178.489 191.206C158.398 193.575 145.237 200.079 138.256 211.09C136.145 214.419 134.64 218.126 133.784 222.104C133.649 222.726 133.1 223.168 132.467 223.168H132.457C131.82 223.164 131.272 222.712 131.145 222.087L111.803 126.247C110.844 121.499 107.17 119.815 104.316 119.815C104.068 119.815 103.821 119.828 103.579 119.852C103.348 119.875 103.117 119.908 102.889 119.954L69.6758 126.403C68.8518 126.563 68.0625 126.858 67.3332 127.28C64.7705 128.762 63.3052 131.622 63.6012 134.567L70.5345 203.524C70.5958 204.132 70.2385 204.707 69.6665 204.92C69.0932 205.135 68.4478 204.936 68.0932 204.436L33.5785 155.611C31.9865 153.358 29.2292 152.132 26.4785 152.479L9.97716 154.547C6.05583 155.039 3.15849 158.514 3.38116 162.46L10.8878 295.475C11.0065 297.579 12.0092 299.551 13.6385 300.887C15.2585 302.214 17.4025 302.818 19.4852 302.52L63.4065 296.27C67.3518 295.708 70.1878 292.156 69.8638 288.184L67.7252 262.062C67.6825 261.527 67.9585 261.018 68.4318 260.764C68.9038 260.51 69.4825 260.562 69.9038 260.894L84.1185 272.114C85.7518 273.404 87.9038 273.97 89.9692 273.646L132.18 266.994C134.201 266.675 136.032 265.53 137.201 263.848C137.417 263.538 137.612 263.207 137.778 262.867C138.016 262.383 138.522 262.086 139.058 262.115C139.598 262.143 140.068 262.491 140.253 262.998C144.263 273.962 150.26 285.711 170.785 286.332C173.832 286.423 179.164 286.47 186.63 286.47C192.972 286.47 198.508 286.436 198.511 286.436C202.268 286.412 205.388 283.696 205.931 279.979L208.827 260.111C209.108 258.186 208.643 256.25 207.516 254.66C207.26 254.3 207.197 253.838 207.348 253.423C207.498 253.008 207.843 252.692 208.269 252.579C210.744 251.92 212.7 250.074 213.499 247.64C213.829 246.634 214.98 242.952 215.891 237.811C216.005 237.168 216.564 236.699 217.217 236.699C217.872 236.699 218.431 237.167 218.545 237.811L223.808 267.496C224.448 271.106 227.572 273.726 231.237 273.726C231.768 273.726 233.384 273.498 260.401 269.688C264.103 269.167 266.893 265.954 266.893 262.216C266.893 261.807 266.077 254.427 255.321 157.263C255.277 156.87 255.409 156.476 255.681 156.188C255.953 155.902 256.337 155.748 256.732 155.77C266.767 156.308 267.672 156.355 267.835 156.355C268.119 156.355 268.408 156.339 268.692 156.306C269.296 156.236 269.869 156.58 270.095 157.144C271.243 160.012 273.983 161.872 277.075 161.883L298.527 161.955C298.889 161.956 299.236 162.103 299.489 162.364C299.741 162.624 299.879 162.976 299.869 163.339L296.889 273.371C296.785 277.216 299.58 280.516 303.389 281.048L327.124 284.363C327.473 284.411 327.827 284.436 328.176 284.436C331.773 284.436 334.884 281.871 335.573 278.335L348.801 210.566C348.917 209.968 349.418 209.524 350.025 209.479C350.058 209.476 350.09 209.475 350.124 209.475C350.692 209.475 351.203 209.834 351.395 210.375C352.948 214.78 355.213 221.142 358.447 230.194C360.896 237.051 363.944 245.584 365.622 250.384C365.758 250.771 365.709 251.2 365.49 251.547C357.617 264.047 330.637 306.795 315.479 330.808C313.404 334.094 314.147 338.378 317.204 340.775L335.352 355C337.207 356.454 339.737 356.963 342.013 356.336C343.04 356.052 344.531 355.403 345.8 353.916L345.892 353.806C348.337 350.83 428.356 254.574 462.646 213.328L465.051 210.435C466.351 208.872 466.969 206.818 466.751 204.798C466.532 202.776 465.487 200.903 463.883 199.655Z" fill="#FFFDEE"/>
<path d="M71.1141 133.81L104.329 127.361L131.005 259.541L88.7941 266.191L58.5381 242.309L62.3421 288.799L18.4221 295.05L10.9141 162.035L27.4167 159.967L81.4207 236.361L71.1101 133.813L71.1141 133.81Z" fill="#FF663C"/>
<path d="M163.33 232.193L187.926 231.202C187.926 231.202 192.276 217.252 183.926 213.78C180.273 212.261 176.27 212.97 172.629 214.014C161.872 216.948 159.898 225.444 163.322 232.19L163.33 232.193ZM175.068 256.202C181.612 259.413 201.36 259.024 201.36 259.024L198.464 278.89C198.464 278.89 178.47 279.014 171.013 278.789C152.124 278.218 149.616 267.305 144.385 251.694C134.4 221.894 142.498 203.048 179.374 198.7C183.633 198.277 187.602 198.252 191.694 199.093C219.612 204.833 206.329 245.286 206.329 245.286C206.329 245.286 176.229 245.088 172.424 245.408C170.954 248.553 170.769 253.84 175.025 256.178L175.068 256.202Z" fill="#78BCFF"/>
<path d="M355.781 199.856L380.394 188.896L400.731 225.875L430.695 183.4L459.249 205.611C459.249 205.611 343.057 345.37 340.063 349.012C340.042 349.038 340.027 349.055 340.007 349.062L321.859 334.836C321.859 334.836 373.51 253.014 374.131 251.978C372.933 247.984 356.609 202.992 355.777 199.862L355.781 199.856Z" fill="#A163E4"/>
<path d="M348.306 84.9079L345.042 75.5612C344.797 74.8639 344.189 74.3519 343.456 74.2332C342.725 74.1172 341.986 74.4079 341.534 74.9959L335.866 82.3532L339.068 84.8212L342.458 80.4212L344.49 86.2426L348.306 84.9079ZM342.278 91.2492L338.292 91.9305C338.666 94.1252 336.856 96.8599 331.964 98.0212C328.021 98.9572 323.421 98.2185 322.548 95.3612L318.682 96.5452C319.938 100.655 324.181 102.449 328.712 102.449C330.105 102.449 331.528 102.28 332.897 101.953C339.34 100.425 343.11 96.1239 342.278 91.2492ZM316.473 84.6012L319.484 80.1479L321.321 83.6145L324.892 81.7225L321.48 75.2839C321.149 74.6559 320.51 74.2492 319.801 74.2119C319.093 74.1732 318.416 74.5106 318.02 75.0986L313.124 82.3372L316.473 84.6012ZM324.472 88.3985L324.448 88.4385C322.909 91.8065 328.584 92.0519 329.754 89.5892C330.344 88.3785 329.182 87.0772 327.784 86.8892C326.393 86.6252 325.073 87.3039 324.472 88.3985ZM344.844 119.059C339.356 119.647 333.357 119.987 327.704 119.465C311.902 118.269 294.374 105.404 296.072 90.1092L296.077 90.0692C298.958 71.4839 316.381 61.9705 334.721 62.8652C353.893 63.0332 367.77 68.4172 371.764 85.1852C377.289 106.355 365.433 116.949 344.844 119.059ZM274.433 128.365L394.006 118.153L393.956 144.976L352.065 154.455L328.168 276.889L304.433 273.576L307.658 154.439C307.653 154.44 277.101 154.337 277.101 154.337C277.101 154.337 275.281 137.325 274.432 128.372L274.433 128.365Z" fill="#FDD02B"/>
<path d="M243.538 53.0952L241.765 44.3206C241.606 43.5312 240.994 42.9112 240.207 42.7432C239.419 42.5739 238.609 42.8859 238.139 43.5419L232.243 51.7525L235.526 54.1112L238.719 49.6646L239.577 53.8952L243.538 53.0952ZM232.829 63.6672L232.817 63.6192C232.338 61.2686 226.783 60.4446 227.098 63.6299C227.346 65.1926 228.897 66.5299 230.462 66.4752C231.887 66.4819 233.151 65.0886 232.829 63.6672ZM231.993 76.1072L228.497 74.0752C227.649 75.5339 226.19 77.1992 224.066 76.8352C222.167 76.5126 220.318 74.6659 219.946 72.7205C219.679 71.3245 220.239 70.1926 221.614 69.3539L219.51 65.9019C216.671 67.6325 215.383 70.3939 215.974 73.4832C216.661 77.0619 219.846 80.2179 223.387 80.8219C223.819 80.8939 224.247 80.9326 224.67 80.9326C227.559 80.9326 230.179 79.2259 231.993 76.1072ZM215.497 55.5606L220.099 46.6085L221.849 53.4645L225.767 52.4645L222.698 40.4419C222.49 39.6285 221.801 39.0272 220.967 38.9326C220.131 38.8392 219.326 39.2699 218.943 40.0165L211.902 53.7125L215.497 55.5606ZM260.975 65.7352L260.966 65.7939C259.177 85.5566 241.433 103.869 221.849 102.657C208.498 100.797 196.133 89.1432 191.939 72.3859C191.145 68.9392 190.762 65.2845 190.897 61.4765C192.589 37.7872 199.642 11.1312 228.713 12.8832C259.131 14.3899 263.887 39.5739 260.975 65.7352ZM169.629 138.395L166.606 107.393C166.606 107.393 265.229 111.383 265.23 111.383L267.834 148.809C267.833 148.809 246.667 147.671 246.667 147.671C246.667 147.671 259.347 262.215 259.347 262.217L231.238 266.179L209.465 143.361L169.633 138.401L169.629 138.395Z" fill="#B5D847"/>
</svg>
